<svg width="54" height="67" fill="none" xmlns="http://www.w3.org/2000/svg"><path d="M48.25 4.188H37.622a5.334 5.334 0 00-4.247-2.094h-2.708a4.26 4.26 0 00-7.334 0h-2.708a5.334 5.334 0 00-4.247 2.094H5.75C2.82 4.188.437 6.535.437 9.421v52.344C.438 64.652 2.821 67 5.75 67h42.5c2.93 0 5.313-2.348 5.313-5.234V9.422c0-2.886-2.384-5.235-5.313-5.235zm-30.813 3.14c0-1.732 1.43-3.14 3.188-3.14h3.383c.45 0 .85-.28 1-.697A2.122 2.122 0 0127 2.094c.89 0 1.69.561 1.991 1.397.15.418.552.696 1.001.696h3.383c1.758 0 3.188 1.41 3.188 3.141v3.14H17.436v-3.14zm34 54.438c0 1.731-1.43 3.14-3.187 3.14H5.75c-1.758 0-3.188-1.409-3.188-3.14V9.422c0-1.732 1.43-3.14 3.188-3.14h9.67c-.07.338-.107.688-.107 1.046v4.188c0 .578.475 1.046 1.062 1.046h21.25c.587 0 1.063-.468 1.063-1.046V7.328c0-.358-.037-.708-.107-1.047h9.669c1.758 0 3.188 1.41 3.188 3.14v52.345z" fill="#fff"/><path d="M48.25 8.375h-6.375c-.587 0-1.063.469-1.063 1.047s.476 1.047 1.063 1.047h5.313v36.64H36.562c-1.757 0-3.187 1.41-3.187 3.141v6.281c0 .578.476 1.047 1.063 1.047.586 0 1.062-.469 1.062-1.047V50.25c0-.577.477-1.047 1.063-1.047h9.122L33.997 60.72H6.813V10.47h5.312c.587 0 1.063-.469 1.063-1.047s-.476-1.047-1.063-1.047H5.75c-.587 0-1.063.469-1.063 1.047v52.344c0 .578.476 1.047 1.063 1.047h28.691a.855.855 0 00.151-.013.45.45 0 00.053-.008c.02-.003.038-.009.058-.014l.042-.01.057-.02.041-.015c.018-.007.036-.016.053-.024.014-.007.028-.012.041-.02.018-.009.036-.02.053-.03l.036-.022.062-.044.021-.016c.03-.023.056-.048.082-.073l13.81-13.607.004-.005a1.09 1.09 0 00.087-.1l.022-.028c.026-.037.05-.074.073-.114l.006-.013a.967.967 0 00.051-.114l.01-.028a1.03 1.03 0 00.037-.133l.002-.007a1.044 1.044 0 00.017-.164l.002-.035V9.422c0-.578-.475-1.047-1.062-1.047zM27 4.188c-.28 0-.554.11-.752.306a1.043 1.043 0 000 1.481 1.077 1.077 0 001.504 0c.198-.195.31-.465.31-.74 0-.277-.112-.546-.31-.741A1.08 1.08 0 0027 4.188z" fill="#fff"/><path d="M31.25 19.89h10.625c.587 0 1.063-.468 1.063-1.046 0-.578-.476-1.047-1.063-1.047H31.25c-.587 0-1.063.469-1.063 1.047s.476 1.047 1.063 1.047zm-8.5 4.188h19.125c.587 0 1.063-.469 1.063-1.047s-.476-1.047-1.063-1.047H22.75c-.587 0-1.063.47-1.063 1.047 0 .578.476 1.047 1.063 1.047zm19.125 6.282h-29.75c-.587 0-1.063.468-1.063 1.046 0 .578.476 1.047 1.063 1.047h29.75c.587 0 1.063-.469 1.063-1.047s-.476-1.047-1.063-1.047zm0 4.187h-29.75c-.587 0-1.063.469-1.063 1.047s.476 1.047 1.063 1.047h29.75c.587 0 1.063-.47 1.063-1.047 0-.578-.476-1.047-1.063-1.047zm0 4.187h-29.75c-.587 0-1.063.47-1.063 1.047 0 .578.476 1.047 1.063 1.047h29.75c.587 0 1.063-.469 1.063-1.047s-.476-1.047-1.063-1.047zm1.063 5.235c0-.578-.476-1.047-1.063-1.047h-29.75c-.587 0-1.063.469-1.063 1.047s.476 1.047 1.063 1.047h29.75c.587 0 1.063-.47 1.063-1.047zm-12.75 3.141h-8.5c-.587 0-1.063.468-1.063 1.046 0 .578.476 1.047 1.063 1.047h8.5c.586 0 1.062-.469 1.062-1.047s-.476-1.047-1.063-1.047zm0 4.187h-8.5c-.587 0-1.063.469-1.063 1.047s.476 1.047 1.063 1.047h8.5c.586 0 1.062-.47 1.062-1.047 0-.578-.476-1.047-1.063-1.047zM11.063 18.844c0 .578.475 1.047 1.062 1.047h5.313c.586 0 1.062-.47 1.062-1.047 0-.578-.476-1.047-1.063-1.047h-5.312c-.587 0-1.063.469-1.063 1.047zM8.938 51.82c0 2.598 2.144 4.711 4.78 4.711 2.637 0 4.782-2.113 4.782-4.71 0-2.598-2.145-4.712-4.781-4.712-2.637 0-4.781 2.114-4.781 4.711zm7.437 0c0 1.443-1.192 2.617-2.656 2.617-1.465 0-2.656-1.174-2.656-2.617s1.191-2.617 2.656-2.617c1.464 0 2.656 1.174 2.656 2.617z" fill="#fff"/></svg>